<?xml version="1.0" encoding="UTF-8" standalone="no"?>
<!-- Created with Inkscape (http://www.inkscape.org/) -->

<svg
   xmlns:dc="http://purl.org/dc/elements/1.1/"
   xmlns:cc="http://creativecommons.org/ns#"
   xmlns:rdf="http://www.w3.org/1999/02/22-rdf-syntax-ns#"
   xmlns:svg="http://www.w3.org/2000/svg"
   xmlns="http://www.w3.org/2000/svg"
   xmlns:sodipodi="http://sodipodi.sourceforge.net/DTD/sodipodi-0.dtd"
   xmlns:inkscape="http://www.inkscape.org/namespaces/inkscape"
   id="svg2"
   version="1.1"
   inkscape:version="0.48.3.1 r9886"
   width="545.66876"
   height="765.35376"
   xml:space="preserve"
   sodipodi:docname="150710_letterset.svg"><metadata
   id="metadata8"><rdf:RDF><cc:Work
       rdf:about=""><dc:format>image/svg+xml</dc:format><dc:type
         rdf:resource="http://purl.org/dc/dcmitype/StillImage" /><dc:title /></cc:Work></rdf:RDF></metadata><defs
   id="defs6"><clipPath
   clipPathUnits="userSpaceOnUse"
   id="clipPath94"><path
     d="m 240.236,0 196.299,0 0,291.97 -196.299,0 0,-291.97 z"
     id="path96"
     inkscape:connector-curvature="0" /></clipPath>























































</defs><sodipodi:namedview
   pagecolor="#ffffff"
   bordercolor="#666666"
   borderopacity="1"
   objecttolerance="10"
   gridtolerance="10"
   guidetolerance="10"
   inkscape:pageopacity="0"
   inkscape:pageshadow="2"
   inkscape:window-width="640"
   inkscape:window-height="480"
   id="namedview4"
   showgrid="false"
   units="mm"
   inkscape:zoom="2.3363006"
   inkscape:cx="57.961085"
   inkscape:cy="148.63285"
   inkscape:current-layer="g3047"
   showguides="false"><sodipodi:guide
     position="0,765.35376"
     orientation="765.34375,0"
     id="guide3243" /><sodipodi:guide
     position="0,0.010007503"
     orientation="0,545.65625"
     id="guide3245" /><sodipodi:guide
     position="545.65625,0.010007503"
     orientation="-765.34375,0"
     id="guide3247" /><sodipodi:guide
     position="545.65625,765.35376"
     orientation="0,-545.65625"
     id="guide3249" /><sodipodi:guide
     position="10.625,754.72876"
     orientation="744.09375,0"
     id="guide3263" /><sodipodi:guide
     position="10.625,10.635008"
     orientation="0,524.40625"
     id="guide3265" /><sodipodi:guide
     position="535.03125,10.635008"
     orientation="-744.09375,0"
     id="guide3267" /><sodipodi:guide
     position="535.03125,754.72876"
     orientation="0,-524.40625"
     id="guide3269" /></sodipodi:namedview><g
   style="display:none"
   inkscape:label="XX_REFERENZ"
   inkscape:groupmode="layer"
   id="g3047"
   sodipodi:insensitive="true">


























<path
   style="color:#000000;fill:#f2f2f2;fill-opacity:1;fill-rule:nonzero;stroke:none;stroke-width:1;marker:none;visibility:visible;display:inline;overflow:visible;enable-background:accumulate"
   d="m 0,0 0,765.34375 545.65625,0 L 545.65625,0 0,0 z m 10.625,10.625 524.40625,0 0,744.09375 -524.40625,0 0,-744.09375 z"
   id="path3049"
   inkscape:connector-curvature="0" /><path
   style="color:#000000;fill:#ffffff;fill-opacity:1;fill-rule:nonzero;stroke:none;stroke-width:1;marker:none;visibility:visible;display:inline;overflow:visible;enable-background:accumulate"
   d="m 10.625,10.625001 0,744.093749 524.40625,0 0,-744.093749 -524.40625,0 z m 10.625,10.625 503.15625,0 0,722.843749 -503.15625,0 0,-722.843749 z"
   id="path3051"
   inkscape:connector-curvature="0" /><text
   xml:space="preserve"
   style="font-size:7.57278013px;font-style:normal;font-variant:normal;font-weight:300;font-stretch:normal;text-align:center;line-height:125%;letter-spacing:0px;word-spacing:0px;writing-mode:lr-tb;text-anchor:middle;fill:#000000;fill-opacity:1;stroke:none;display:inline;font-family:Source Code Pro;-inkscape-font-specification:Source Code Pro Light"
   x="272.62845"
   y="-23.87475"
   id="text4591"
   sodipodi:linespacing="125%"><tspan
     sodipodi:role="line"
     id="tspan4593"
     x="272.62845"
     y="-23.87475">148mm</tspan></text>



































































<text
   sodipodi:linespacing="125%"
   id="text4615"
   y="-33.874752"
   x="272.62845"
   style="font-size:7.57278013px;font-style:normal;font-variant:normal;font-weight:300;font-stretch:normal;text-align:center;line-height:125%;letter-spacing:0px;word-spacing:0px;writing-mode:lr-tb;text-anchor:middle;fill:#000000;fill-opacity:1;stroke:none;display:inline;font-family:Source Code Pro;-inkscape-font-specification:Source Code Pro Light"
   xml:space="preserve"><tspan
     y="-33.874752"
     x="272.62845"
     id="tspan4617"
     sodipodi:role="line">154mm</tspan></text>



































































<path
   id="path4625"
   style="color:#000000;fill:none;stroke:#000000;stroke-width:0.19999999;stroke-linecap:butt;stroke-linejoin:bevel;stroke-miterlimit:4;stroke-opacity:1;stroke-dasharray:none;stroke-dashoffset:0;marker:none;visibility:visible;display:inline;overflow:visible;enable-background:accumulate"
   d="m 542.9163,-38.272123 1.97787,1.977875 -1.97787,1.977875 m -540.1638375,0 -1.977875,-1.977875 1.977875,-1.977875 m 283.6210975,1.977875 258.53918,0 m -544.1567275,0 258.5391875,0"
   inkscape:connector-curvature="0"
   sodipodi:nodetypes="cccccccccc" /><path
   sodipodi:nodetypes="cccccccccc"
   inkscape:connector-curvature="0"
   d="m 532.9163,-28.272124 1.97787,1.977875 -1.97787,1.977875 m -520.163838,0 -1.977875,-1.977875 1.977875,-1.977875 m 273.621098,1.977875 248.53918,0 m -524.156728,0 248.539188,0"
   style="color:#000000;fill:none;stroke:#000000;stroke-width:0.19999999;stroke-linecap:butt;stroke-linejoin:bevel;stroke-miterlimit:4;stroke-opacity:1;stroke-dasharray:none;stroke-dashoffset:0;marker:none;visibility:visible;display:inline;overflow:visible;enable-background:accumulate"
   id="path3318" /><text
   transform="matrix(0,1,-1,0,0,0)"
   sodipodi:linespacing="125%"
   id="text3320"
   y="-575.45654"
   x="382.47095"
   style="font-size:7.57278013px;font-style:normal;font-variant:normal;font-weight:300;font-stretch:normal;text-align:center;line-height:125%;letter-spacing:0px;word-spacing:0px;writing-mode:lr-tb;text-anchor:middle;fill:#000000;fill-opacity:1;stroke:none;display:inline;font-family:Source Code Pro;-inkscape-font-specification:Source Code Pro Light"
   xml:space="preserve"><tspan
     y="-575.45654"
     x="382.47095"
     id="tspan3322"
     sodipodi:role="line">210mm</tspan></text>



































































<text
   transform="matrix(0,1,-1,0,0,0)"
   xml:space="preserve"
   style="font-size:7.57278013px;font-style:normal;font-variant:normal;font-weight:300;font-stretch:normal;text-align:center;line-height:125%;letter-spacing:0px;word-spacing:0px;writing-mode:lr-tb;text-anchor:middle;fill:#000000;fill-opacity:1;stroke:none;display:inline;font-family:Source Code Pro;-inkscape-font-specification:Source Code Pro Light"
   x="382.47095"
   y="-585.45654"
   id="text3324"
   sodipodi:linespacing="125%"><tspan
     sodipodi:role="line"
     id="tspan3326"
     x="382.47095"
     y="-585.45654">216mm</tspan></text>



































































<path
   sodipodi:nodetypes="cccccccccc"
   inkscape:connector-curvature="0"
   d="m 589.8539,762.75881 -1.97787,1.97788 -1.97788,-1.97788 m 0,-760.1638335 1.97788,-1.977875 1.97787,1.977875 m -1.97787,393.6211035 0,368.53917 m 0,-764.1567235 0,368.5391835"
   style="color:#000000;fill:none;stroke:#000000;stroke-width:0.19999999;stroke-linecap:butt;stroke-linejoin:bevel;stroke-miterlimit:4;stroke-opacity:1;stroke-dasharray:none;stroke-dashoffset:0;marker:none;visibility:visible;display:inline;overflow:visible;enable-background:accumulate"
   id="path3328" /><path
   id="path3346"
   style="color:#000000;fill:none;stroke:#000000;stroke-width:0.19999999;stroke-linecap:butt;stroke-linejoin:bevel;stroke-miterlimit:4;stroke-opacity:1;stroke-dasharray:none;stroke-dashoffset:0;marker:none;visibility:visible;display:inline;overflow:visible;enable-background:accumulate"
   d="m 579.8539,751.75881 -1.97787,1.97788 -1.97788,-1.97788 m 0,-738.163834 1.97788,-1.977875 1.97787,1.977875 m -1.97787,382.621104 0,357.53917 m 0,-742.156724 0,357.539184"
   inkscape:connector-curvature="0"
   sodipodi:nodetypes="cccccccccc" /></g><g
   inkscape:groupmode="layer"
   id="layer3"
   inkscape:label="BOTTOMLINE"
   style="display:inline"><path
     style="fill:none;stroke:#000000;stroke-width:0.35433071;stroke-linecap:butt;stroke-linejoin:miter;stroke-opacity:1;stroke-miterlimit:4;stroke-dasharray:none"
     d="m -1.240024,689.59378 546.770914,0"
     id="path3130"
     inkscape:connector-curvature="0"
     sodipodi:nodetypes="cc" /><path
     inkscape:connector-curvature="0"
     style="color:#000000;fill:#111111;fill-opacity:1;fill-rule:nonzero;stroke:none;stroke-width:0;marker:none;visibility:visible;display:inline;overflow:visible;enable-background:accumulate"
     d="m 459.65609,683.8942 0,52.45768 19.37081,-4.15666 19.37081,4.15666 0,-52.45768 z m 24.13278,12.45738 c 0.91378,10e-6 1.64396,0.25387 2.19939,0.7466 0.56438,0.49275 0.84746,1.12628 0.84746,1.89673 0,0.003 0,1.4691 0,1.47299 -0.007,1.05839 -0.43211,1.59406 -1.27117,1.59403 -0.37632,3e-5 -0.69083,-0.0966 -0.96854,-0.30264 -0.26733,-0.21386 -0.40213,-0.67078 -0.40355,-1.3721 0,-0.003 0,-1.48937 0,-1.49319 0,-0.9586 -0.36398,-1.43258 -1.08962,-1.43262 -0.59134,4e-5 -1.20015,0.42012 -1.83623,1.2712 -0.62708,0.85112 -1.19323,2.83475 -1.69495,5.95248 l 3.22848,0 c 0.0717,10e-6 0.12108,0.0539 0.12108,0.16143 0,0.21505 -0.11678,0.54078 -0.32287,0.98872 -0.0894,0.18816 -0.16147,0.28251 -0.24211,0.28251 l -3.08719,0 -2.25992,11.19874 c -0.18816,0.94965 -0.48918,1.95829 -0.92819,3.0065 -0.43004,1.05715 -1.04784,1.82996 -1.83624,2.34064 -0.78837,0.51064 -1.61282,0.76675 -2.48183,0.76676 -0.7884,-10e-6 -1.41963,-0.1775 -1.87657,-0.5448 -0.46588,-0.36734 -0.68606,-0.747 -0.68606,-1.15014 0,-0.40317 0.12355,-0.74014 0.38341,-1.00892 0.25984,-0.26874 0.54283,-0.40354 0.84747,-0.40354 0.53755,0 0.93297,0.28304 1.21068,0.84748 0.26874,0.57334 0.54953,0.84748 0.82724,0.84748 0.41216,0 0.71992,-0.19325 0.90804,-0.60535 0.18812,-0.40316 0.37684,-1.07712 0.56502,-2.01778 l 2.68361,-13.27707 -2.42135,0 c -0.0717,0 -0.10092,-0.0561 -0.10092,-0.18162 0,-0.2777 0.0943,-0.61244 0.28247,-0.9887 0.0894,-0.1792 0.17272,-0.26233 0.2623,-0.26234 l 2.25992,0 c 0.6003,-3.21628 1.44944,-5.41329 2.5424,-6.578 1.09303,-1.17362 2.53751,-1.75547 4.33828,-1.75548 z m 1.75548,5.91215 c 0.55011,2.05304 3.30917,5.09372 3.30917,7.97028 0,1.83452 -1.47465,3.34951 -3.30917,3.34951 -1.8345,0 -3.32934,-1.51499 -3.32934,-3.34951 0,-2.70504 2.79354,-5.97049 3.32934,-7.97028 z"
     id="rect2984-7"
     sodipodi:nodetypes="ccccccscsccccsccccscscccsccssscscccssccccsscsss" /><flowRoot
     xml:space="preserve"
     id="flowRoot3164"
     style="font-size:8px;font-style:normal;font-variant:normal;font-weight:300;font-stretch:normal;text-align:start;line-height:170.00000477%;letter-spacing:0px;word-spacing:0px;writing-mode:lr-tb;text-anchor:start;fill:#000000;fill-opacity:1;stroke:none;font-family:Source Code Pro;-inkscape-font-specification:Source Code Pro Light"
     transform="translate(2,-24)"><flowRegion
       id="flowRegion3166"><rect
         id="rect3168"
         width="395.84744"
         height="43.151283"
         x="45.286743"
         y="717.47919"
         style="font-size:8px;font-style:normal;line-height:170.00000477%;-inkscape-font-specification:Source Code Pro Light" /></flowRegion><flowPara
       id="flowPara3170">REPLYTO</flowPara></flowRoot></g>

















































</svg>